# xmcd CD database file
#
# Track frame offsets:
#	150
#	10680
#	24275
#	33050
#	46162
#	55785
#	68022
#	78650
#	90265
#	100012
#	111420
#
# Disc length: 1630 seconds
#
# Revision: 0
# Processed by: cddbd v1.4PL0 Copyright (c) Steve Scherf et al.
# Submitted via: Feurio! 1.65 - http://www.feurio.com
#
DISCID=71065c0b
DTITLE=Various Artist - Country Love Songs
DYEAR=1900
DGENRE=
TTITLE0=Faron Young - If You Ain't Lovin'
TTITLE1=Willie Nelson - I Feel Sorry For Him
TTITLE2=Patsy Kline - Come On In
TTITLE3=Ace Cannon - Hey Good Lockin'
TTITLE4=Dave Dudley - Six Days On The Road
TTITLE5=Lynn Anderson - Stand By Your Man
TTITLE6=Wayton Jennings - Burning Memories
TTITLE7=Frankie Laine - Mule Train
TTITLE8=Barbara Mandrell - Release Me
TTITLE9=Roy Drusky - Take These Chains From My Heart
TTITLE10=Kenny Rogers - Always Leaving, Always Gone
EXTD=
EXTT0=
EXTT1=
EXTT2=
EXTT3=
EXTT4=
EXTT5=
EXTT6=
EXTT7=
EXTT8=
EXTT9=
EXTT10=
PLAYORDER=
